<?xml version="1.0" encoding="iso-8859-1"?>
<!-- Generator: Adobe Illustrator 19.0.0, SVG Export Plug-In . SVG Version: 6.00 Build 0)  -->
<svg version="1.1" id="Layer_1" xmlns="http://www.w3.org/2000/svg" xmlns:xlink="http://www.w3.org/1999/xlink" x="0px" y="0px"
	 viewBox="0 0 512.001 512.001" style="enable-background:new 0 0 512.001 512.001;" xml:space="preserve">
<polygon style="fill:#FFCA12;" points="10.199,501.801 256,501.801 256,256.001 "/>
<polygon style="fill:#6ED3FF;" points="501.801,10.2 256,256.001 256,501.801 501.801,501.801 "/>
<path d="M2.988,494.59c-2.917,2.917-3.789,7.305-2.21,11.115c1.578,3.811,5.297,6.296,9.422,6.296h491.602
	c5.632,0,10.199-4.566,10.199-10.199V10.2c0-4.125-2.486-7.844-6.296-9.423c-3.81-1.579-8.198-0.706-11.115,2.21L2.988,494.59z
	 M245.801,280.625v210.978H34.822L245.801,280.625z M491.602,491.602H266.199V260.226L491.602,34.824V491.602z"/>
<path d="M470.183,480.383c5.632,0,10.199-4.566,10.199-10.199V282.518c0-5.633-4.567-10.199-10.199-10.199
	c-5.632,0-10.199,4.566-10.199,10.199v187.665C459.984,475.817,464.551,480.383,470.183,480.383z"/>
<path d="M470.183,256.001c5.632,0,10.199-4.566,10.199-10.199v-4.08c0-5.633-4.567-10.199-10.199-10.199
	c-5.632,0-10.199,4.566-10.199,10.199v4.08C459.984,251.434,464.551,256.001,470.183,256.001z"/>
<g>
</g>
<g>
</g>
<g>
</g>
<g>
</g>
<g>
</g>
<g>
</g>
<g>
</g>
<g>
</g>
<g>
</g>
<g>
</g>
<g>
</g>
<g>
</g>
<g>
</g>
<g>
</g>
<g>
</g>
</svg>
